<svg class="logo" version="1.0" xmlns="http://www.w3.org/2000/svg" width="1465px" height="1615px" viewBox="0 0 1465 1615" preserveAspectRatio="xMidYMid meet">
 <g fill="#ff6600">
  <path d="M441.2 1453.9 c-80.5 -87.9 -146.6 -159.9 -147 -159.9 -0.4 0 -66.4 71.7 -146.7 159.4 l-146 159.5 -0.3 -803.6 c-0.1 -442 0 -803.8 0.1 -804 0.2 -0.2 101.8 -1 225.8 -1.7 124 -0.8 255.7 -1.8 292.7 -2.1 l67.2 -0.6 0 733 0 733.1 145.5 0 145.5 0 0 -588.9 c0 -393.6 0.3 -593.1 1 -601.7 11.1 -139.3 115.3 -249.7 254 -269.1 15.6 -2.2 58.6 -2.4 73 -0.4 36.2 5 64.5 13.5 95 28.7 17.7 8.8 31.9 17.4 45.2 27.5 67.3 50.7 109 125.1 116.8 208.4 0.7 7.4 1 227.5 1 676.8 l0 665.7 -73.5 0 -73.5 0 -0.2 -666.2 c-0.3 -637.1 -0.4 -666.7 -2.1 -675.3 -8.2 -41.1 -30.7 -74.7 -65 -96.9 -42.3 -27.5 -97.5 -30.6 -142.9 -8 -14.8 7.3 -25.4 15 -37.8 27.4 -21.1 21 -33.3 43.1 -40.7 74 -1.7 7.2 -1.8 36.6 -2 676.3 l-0.3 668.7 -219.3 -0.1 -219.2 0 -146.3 -160z"/>
 </g>
</svg>