<?xml version="1.0" standalone="no"?>
<!DOCTYPE svg PUBLIC "-//W3C//DTD SVG 20010904//EN"
 "http://www.w3.org/TR/2001/REC-SVG-20010904/DTD/svg10.dtd">
<svg version="1.0" xmlns="http://www.w3.org/2000/svg"
 width="1615.000000pt" height="1615.000000pt" viewBox="0 0 1615.000000 1615.000000"
 preserveAspectRatio="xMidYMid meet">
<metadata>
Created by potrace 1.11, written by Peter Selinger 2001-2013
</metadata>
<g transform="translate(0.000000,1615.000000) scale(0.100000,-0.100000)"
fill="#000000" stroke="none">
<path d="M6447 16143 c-1 0 -463 -4 -1027 -7 -564 -4 -1308 -9 -1655 -11 -736
-5 -2376 -16 -2747 -18 -142 -1 -258 -4 -259 -7 -3 -20 -3 -16083 0 -16086 2
-2 13 6 23 19 11 12 45 49 76 82 31 33 93 101 137 149 44 49 91 101 105 115
14 15 48 51 75 82 28 30 93 101 145 158 111 121 90 98 220 241 58 63 112 122
120 130 8 9 56 61 105 115 50 54 113 124 142 154 28 31 62 68 75 82 13 14 64
70 113 124 50 55 103 113 119 130 27 29 161 175 201 219 55 62 217 238 270
295 33 36 65 70 70 77 11 12 181 198 205 224 8 9 60 65 115 125 55 61 105 115
110 121 6 6 53 57 105 114 52 56 103 112 113 124 10 11 58 63 106 116 48 52
109 118 135 146 l47 52 57 -61 c31 -34 78 -84 103 -112 25 -27 75 -81 110
-120 73 -79 133 -145 168 -184 13 -14 67 -73 120 -130 53 -57 104 -113 113
-124 23 -25 166 -182 240 -262 31 -33 65 -70 75 -82 20 -23 163 -179 214 -234
19 -20 71 -76 115 -125 45 -49 95 -103 110 -120 16 -17 51 -55 78 -85 27 -30
90 -99 140 -153 90 -99 103 -113 181 -197 40 -43 226 -247 295 -323 19 -21 46
-50 60 -65 69 -75 215 -233 229 -250 15 -17 151 -166 211 -231 14 -15 63 -69
110 -120 47 -51 113 -123 147 -159 l61 -66 2191 0 2191 0 1 6615 c1 3638 3
6633 4 6655 7 83 22 172 50 292 9 38 72 198 101 254 256 507 783 819 1344 796
74 -3 147 -8 162 -12 16 -3 40 -7 55 -9 158 -21 374 -111 547 -226 314 -210
546 -562 612 -927 2 -13 7 -35 10 -50 3 -16 8 -77 10 -138 3 -60 6 -3066 7
-6680 l2 -6570 740 0 740 0 0 6655 c0 3660 -4 6696 -8 6745 -11 130 -15 167
-38 290 -66 359 -195 697 -386 1010 -7 11 -16 27 -20 35 -4 8 -11 20 -15 25
-5 6 -38 53 -75 105 -124 177 -322 395 -473 521 -36 30 -67 56 -70 59 -45 48
-290 212 -430 290 -240 133 -590 264 -820 305 -192 35 -251 43 -380 52 -168
11 -460 6 -560 -11 -14 -2 -50 -7 -80 -11 -183 -21 -464 -97 -673 -182 -782
-316 -1397 -958 -1674 -1748 -33 -92 -77 -245 -87 -297 -2 -12 -9 -41 -14 -63
-6 -22 -13 -53 -15 -70 -3 -16 -10 -59 -15 -95 -11 -66 -17 -119 -28 -245 -3
-38 -6 -2728 -7 -5977 l0 -5908 -1451 0 -1451 0 1 7325 c0 5257 -2 7325 -10
7326 -20 2 -168 4 -169 2z"/>
</g>
</svg>
